<?xml version="1.0" standalone="no"?>
<!DOCTYPE svg PUBLIC "-//W3C//DTD SVG 20010904//EN"
 "http://www.w3.org/TR/2001/REC-SVG-20010904/DTD/svg10.dtd">
<svg version="1.0" xmlns="http://www.w3.org/2000/svg"
 width="160.000000pt" height="160.000000pt" viewBox="0 0 160.000000 160.000000"
 preserveAspectRatio="xMidYMid meet">
<metadata>
Created by potrace 1.14, written by Peter Selinger 2001-2017
</metadata>
<g transform="translate(0.000000,160.000000) scale(0.100000,-0.100000)"
fill="#000000" stroke="none">
<path d="M305 1580 c-79 -10 -188 -105 -184 -160 1 -14 -1 -32 -4 -40 -3 -8
-8 -44 -10 -79 -4 -49 -1 -76 14 -113 10 -27 19 -60 19 -73 0 -14 9 -33 20
-42 11 -10 20 -25 20 -33 0 -9 5 -21 11 -27 7 -7 1 -28 -20 -70 -53 -105 -41
-160 62 -289 64 -79 87 -94 135 -83 46 9 65 29 29 29 -28 0 -66 30 -68 53 0 6
-2 23 -5 36 -4 21 -3 22 13 10 10 -8 20 -16 23 -19 3 -3 31 -25 63 -49 31 -24
57 -46 57 -50 0 -4 -13 -14 -28 -23 -91 -54 -167 -173 -188 -295 -3 -15 -14
-53 -25 -83 -30 -81 -21 -116 38 -142 79 -35 167 -18 158 30 -2 9 -4 24 -5 32
0 9 -7 4 -16 -12 -26 -49 -94 -46 -143 6 l-22 23 35 52 c76 113 201 195 296
195 67 1 116 -21 226 -100 245 -177 335 -216 440 -188 67 18 68 18 103 -15 30
-28 68 -41 124 -43 34 0 83 42 103 90 13 28 12 36 -1 62 -8 16 -15 35 -15 43
0 8 -9 26 -21 41 -18 23 -19 30 -8 63 29 90 4 200 -78 332 -26 42 -49 78 -52
81 -16 14 -103 153 -131 210 -126 251 -123 500 7 568 40 22 105 9 156 -30 17
-13 17 -16 2 -61 -22 -67 -14 -79 14 -21 47 93 38 114 -64 148 -68 24 -123 22
-174 -4 -48 -24 -144 -117 -166 -161 -19 -37 -45 -145 -37 -156 4 -4 2 -3 -4
2 -7 6 -31 45 -54 89 l-43 78 31 -16 c35 -18 52 -43 52 -77 0 -36 19 -9 21 31
3 45 -30 98 -120 193 l-68 71 -68 -33 -67 -33 4 -49 c6 -60 -6 -63 -59 -16
-21 19 -54 39 -73 46 -19 6 -44 21 -56 32 -32 30 -127 48 -199 39z"/>
</g>
</svg>
